<?xml version="1.0" encoding="UTF-8"?>
<svg xmlns="http://www.w3.org/2000/svg" xmlns:xlink="http://www.w3.org/1999/xlink" width="100pt" height="100pt" viewBox="0 0 100 100" version="1.1">
<g id="surface23764636">
<path style=" stroke:none;fill-rule:nonzero;fill:rgb(100%,100%,100%);fill-opacity:1;" d="M 28 8 C 16.976562 8 8 16.976562 8 28 L 8 72 C 8 83.023438 16.976562 92 28 92 L 72 92 C 83.023438 92 92 83.023438 92 72 L 92 28 C 92 16.976562 83.023438 8 72 8 Z M 28 12 L 72 12 C 80.863281 12 88 19.136719 88 28 L 88 72 C 88 80.863281 80.863281 88 72 88 L 28 88 C 19.136719 88 12 80.863281 12 72 L 12 28 C 12 19.136719 19.136719 12 28 12 Z M 26 30 C 22.710938 30 20 32.710938 20 36 L 20 64 C 20 67.289062 22.710938 70 26 70 L 74 70 C 77.289062 70 80 67.289062 80 64 L 80 36 C 80 32.710938 77.289062 30 74 30 Z M 26.828125 34 L 73.167969 34 L 55.355469 51.785156 C 52.371094 54.765625 47.59375 54.765625 44.609375 51.78125 Z M 76 36.824219 L 76 63.175781 L 62.804688 50 Z M 24 36.828125 L 37.171875 50 L 24 63.171875 Z M 59.976562 52.824219 L 73.171875 66 L 26.828125 66 L 40 52.828125 L 41.78125 54.609375 C 46.292969 59.121094 53.664062 59.125 58.179688 54.617188 Z M 59.976562 52.824219 "/>
</g>
</svg>
