<?xml version="1.0" encoding="UTF-8"?>
<svg xmlns="http://www.w3.org/2000/svg" xmlns:xlink="http://www.w3.org/1999/xlink" width="100pt" height="100pt" viewBox="0 0 100 100" version="1.1">
<g id="surface14486200">
<path style=" stroke:none;fill-rule:nonzero;fill:rgb(100%,100%,100%);fill-opacity:1;" d="M 79.6875 87.5 L 20.3125 87.5 C 16.003906 87.5 12.5 83.996094 12.5 79.6875 L 12.5 20.3125 C 12.5 16.003906 16.003906 12.5 20.3125 12.5 L 79.6875 12.5 C 83.996094 12.5 87.5 16.003906 87.5 20.3125 L 87.5 79.6875 C 87.5 83.996094 83.996094 87.5 79.6875 87.5 Z M 20.3125 15.625 C 17.726562 15.625 15.625 17.726562 15.625 20.3125 L 15.625 79.6875 C 15.625 82.273438 17.726562 84.375 20.3125 84.375 L 79.6875 84.375 C 82.273438 84.375 84.375 82.273438 84.375 79.6875 L 84.375 20.3125 C 84.375 17.726562 82.273438 15.625 79.6875 15.625 Z M 20.3125 15.625 "/>
<path style=" stroke:none;fill-rule:nonzero;fill:rgb(100%,100%,100%);fill-opacity:1;" d="M 70.269531 35.472656 L 74.59375 31.828125 C 75.398438 31.148438 74.925781 29.832031 73.882812 29.832031 L 61.347656 29.832031 L 50.761719 55.53125 L 39.039062 29.832031 L 26.117188 29.832031 C 25.121094 29.832031 24.625 31.046875 25.328125 31.757812 L 30.117188 36.601562 L 30.117188 63.6875 L 25.65625 70.457031 L 39.039062 70.457031 L 34.578125 63.6875 L 34.578125 42.242188 L 44.617188 70.457031 L 50.195312 70.457031 L 61.347656 42.242188 L 61.347656 65.941406 L 56.886719 70.457031 L 74.734375 70.457031 L 70.273438 65.941406 L 70.273438 35.472656 Z M 70.269531 35.472656 "/>
</g>
</svg>
